<svg xmlns="http://www.w3.org/2000/svg" version="1.1" xmlns:xlink="http://www.w3.org/1999/xlink" xmlns:svgjs="http://svgjs.dev/svgjs" width="2000" height="358" viewBox="0 0 2000 358"><g transform="matrix(1,0,0,1,-1.2121212121212466,-0.1781498259640273)"><svg viewBox="0 0 396 71" data-background-color="#000000" preserveAspectRatio="xMidYMid meet" height="358" width="2000" xmlns="http://www.w3.org/2000/svg" xmlns:xlink="http://www.w3.org/1999/xlink"><g id="tight-bounds" transform="matrix(1,0,0,1,0.2400000000000091,0.035331390065493906)"><svg viewBox="0 0 395.52 70.92933721986901" height="70.92933721986901" width="395.52"><g><svg viewBox="0 0 395.52 70.92933721986901" height="70.92933721986901" width="395.52"><g><svg viewBox="0 0 395.52 70.92933721986901" height="70.92933721986901" width="395.52"><g id="textblocktransform"><svg viewBox="0 0 395.52 70.92933721986901" height="70.92933721986901" width="395.52" id="textblock"><g><svg viewBox="0 0 395.52 45.661451144792004" height="45.661451144792004" width="395.52"><g transform="matrix(1,0,0,1,0,0)"><svg width="395.52" viewBox="0 -35.8 310.08 35.8" height="45.661451144792004" data-palette-color="#ffffff"><path d="M27.55-2.15L39.1-2.15 39.1 0 0 0 0-2.15 4.85-2.15 4.85-34.95 16.85-34.95Q26.25-34.95 31.3-30.38 36.35-25.8 36.35-17.5L36.35-17.5Q36.35-6.35 27.55-2.15L27.55-2.15ZM30.4-17.5L30.4-17.5Q30.4-29.5 16.65-29.5L16.65-29.5 10.75-29.5 10.75-5.55 17.3-5.55Q23.65-5.55 27.03-8.58 30.4-11.6 30.4-17.5ZM69.65-2.15L81.1-2.15 81.1 0 39.1 0 39.1-2.15 50.55-2.15Q46.45-4.5 44.07-8.6 41.7-12.7 41.7-17.75L41.7-17.75Q41.7-25.45 47-30.63 52.3-35.8 60.1-35.8 67.9-35.8 73.2-30.63 78.5-25.45 78.5-17.75L78.5-17.75Q78.5-12.75 76.12-8.6 73.75-4.45 69.65-2.15L69.65-2.15ZM68.87-26.7Q65.3-30.4 60.1-30.4 54.9-30.4 51.32-26.7 47.75-23 47.75-17.73 47.75-12.45 51.32-8.75 54.9-5.05 60.1-5.05 65.3-5.05 68.87-8.75 72.45-12.45 72.45-17.73 72.45-23 68.87-26.7ZM111.55-2.15L118.94-2.15 118.94 0 81.09 0 81.09-2.15 93.19-2.15Q88.84-4.35 86.27-8.6 83.69-12.85 83.69-18.2L83.69-18.2Q83.69-25.85 89-30.83 94.3-35.8 101.87-35.8 109.44-35.8 114.44-31.4L114.44-31.4 111.3-26.9Q109.25-28.65 107.17-29.33 105.09-30 102.34-30L102.34-30Q97-30 93.42-26.8 89.84-23.6 89.84-18.05 89.84-12.5 93.34-9.13 96.84-5.75 101.82-5.75 106.8-5.75 110.14-7.9L110.14-7.9 110.14-17.5 116.05-17.5 116.05-5.55Q114.19-3.5 111.55-2.15L111.55-2.15ZM154.74-2.15L160.54-2.15 160.54 0 149.39 0 145.89-7.95 128.39-7.95 124.89 0 113.74 0 113.74-2.15 119.54-2.15 133.99-34.95 140.29-34.95 154.74-2.15ZM130.79-13.4L143.49-13.4 137.14-27.8 130.79-13.4ZM199.99-2.15L204.84-2.15 204.84 0 194.09 0 194.09-27.3 181.89-3.05 178.59-3.05 166.44-27.3 166.44 0 155.69 0 155.69-2.15 160.54-2.15 160.54-34.95 169.74-34.95 180.29-13 190.84-34.95 199.99-34.95 199.99-2.15ZM204.84-2.15L209.69-2.15 209.69-34.95 215.59-34.95 215.59-2.15 220.44-2.15 220.44 0 204.84 0 204.84-2.15ZM229.99-2.15L234.38-2.15 234.38 0 220.44 0 220.44-2.15 224.78-2.15Q223.69-3.15 223.69-4.78 223.69-6.4 224.76-7.48 225.84-8.55 227.38-8.55 228.94-8.55 230.03-7.48 231.13-6.4 231.13-4.8 231.13-3.2 229.99-2.15L229.99-2.15ZM264.83-2.15L272.23-2.15 272.23 0 234.38 0 234.38-2.15 246.48-2.15Q242.13-4.35 239.56-8.6 236.98-12.85 236.98-18.2L236.98-18.2Q236.98-25.85 242.28-30.83 247.58-35.8 255.16-35.8 262.73-35.8 267.73-31.4L267.73-31.4 264.58-26.9Q262.53-28.65 260.46-29.33 258.38-30 255.63-30L255.63-30Q250.28-30 246.71-26.8 243.13-23.6 243.13-18.05 243.13-12.5 246.63-9.13 250.13-5.75 255.11-5.75 260.08-5.75 263.43-7.9L263.43-7.9 263.43-17.5 269.33-17.5 269.33-5.55Q267.48-3.5 264.83-2.15L264.83-2.15ZM302.68-2.15L310.08-2.15 310.08 0 272.23 0 272.23-2.15 284.33-2.15Q279.98-4.35 277.41-8.6 274.83-12.85 274.83-18.2L274.83-18.2Q274.83-25.85 280.13-30.83 285.43-35.8 293-35.8 300.58-35.8 305.58-31.4L305.58-31.4 302.43-26.9Q300.38-28.65 298.31-29.33 296.23-30 293.48-30L293.48-30Q288.13-30 284.56-26.8 280.98-23.6 280.98-18.05 280.98-12.5 284.48-9.13 287.98-5.75 292.96-5.75 297.93-5.75 301.28-7.9L301.28-7.9 301.28-17.5 307.18-17.5 307.18-5.55Q305.33-3.5 302.68-2.15L302.68-2.15Z" opacity="1" transform="matrix(1,0,0,1,0,0)" fill="#ffffff" class="wordmark-text-0" data-fill-palette-color="primary" id="text-0"></path></svg></g></svg></g><g transform="matrix(1,0,0,1,75.54431999999998,56.44102388524992)"><svg viewBox="0 0 244.43136 14.488313334619095" height="14.488313334619095" width="244.43136"><g transform="matrix(1,0,0,1,0,0)"><svg width="244.43136" viewBox="0.35 -36.25 777.68 46.1" height="14.488313334619095" data-palette-color="#ffffff"><path d="M25.05-13.35L25.05 0 14 0 14-13.35 0.35-34.4 13.05-34.4 19.65-22.95 19.85-22.95 26.45-34.4 38.5-34.4 25.05-13.35ZM51.3-27Q58.25-27 62.22-23.48 66.2-19.95 66.2-13.2L66.2-13.2Q66.2-6.45 62.22-2.93 58.25 0.6 51.3 0.6L51.3 0.6Q44.35 0.6 40.4-2.9 36.45-6.4 36.45-13.2L36.45-13.2Q36.45-20 40.4-23.5 44.35-27 51.3-27L51.3-27ZM51.3-20.25Q46.4-20.25 46.4-14.6L46.4-14.6 46.4-11.75Q46.4-6.15 51.3-6.15L51.3-6.15Q56.25-6.15 56.25-11.75L56.25-11.75 56.25-14.6Q56.25-20.25 51.3-20.25L51.3-20.25ZM98.3 0L90.15 0 89.5-4Q87.95-1.85 85.42-0.63 82.9 0.6 80.09 0.6L80.09 0.6Q75.5 0.6 73.2-1.95 70.9-4.5 70.9-9.3L70.9-9.3 70.9-26.4 80.84-26.4 80.84-10.5Q80.84-8.8 81.72-7.78 82.59-6.75 84.2-6.75L84.2-6.75Q86.05-6.75 87.2-7.95 88.34-9.15 88.34-10.9L88.34-10.9 88.34-26.4 98.3-26.4 98.3 0ZM120.39-27.05Q121.54-27.05 122.44-26.78 123.34-26.5 123.34-26.45L123.34-26.45 123.34-18.1 120.14-18.1Q117.04-18.1 115.67-16.5 114.29-14.9 114.29-11.75L114.29-11.75 114.29 0 104.34 0 104.34-26.4 112.49-26.4 113.14-22.4Q114.04-24.7 115.99-25.88 117.94-27.05 120.39-27.05L120.39-27.05ZM155.19-26.4L160.79-26.4 160.79-19.65 155.19-19.65 155.19-9.6Q155.19-7.8 155.79-6.98 156.39-6.15 157.99-6.15L157.99-6.15 160.79-6.15 160.79-0.3Q159.59 0.1 157.69 0.35 155.79 0.6 154.39 0.6L154.39 0.6Q149.99 0.6 147.61-1 145.24-2.6 145.24-6.45L145.24-6.45 145.24-19.65 141.54-19.65 141.54-26.4 145.64-26.4 147.79-34.4 155.19-34.4 155.19-26.4ZM181.44-27.05Q182.58-27.05 183.48-26.78 184.38-26.5 184.38-26.45L184.38-26.45 184.38-18.1 181.19-18.1Q178.08-18.1 176.71-16.5 175.33-14.9 175.33-11.75L175.33-11.75 175.33 0 165.38 0 165.38-26.4 173.53-26.4 174.19-22.4Q175.08-24.7 177.03-25.88 178.98-27.05 181.44-27.05L181.44-27.05ZM216.53 0L208.38 0 207.73-4Q206.18-1.85 203.66-0.63 201.13 0.6 198.33 0.6L198.33 0.6Q193.73 0.6 191.43-1.95 189.13-4.5 189.13-9.3L189.13-9.3 189.13-26.4 199.08-26.4 199.08-10.5Q199.08-8.8 199.96-7.78 200.83-6.75 202.43-6.75L202.43-6.75Q204.28-6.75 205.43-7.95 206.58-9.15 206.58-10.9L206.58-10.9 206.58-26.4 216.53-26.4 216.53 0ZM236.23-27Q243.48-27 247.3-23.6 251.13-20.2 251.13-13.2L251.13-13.2 251.13-11.5 231.33-11.5Q231.33-8.65 232.6-7.2 233.88-5.75 236.63-5.75L236.63-5.75Q239.13-5.75 240.3-6.8 241.48-7.85 241.48-9.6L241.48-9.6 251.13-9.6Q251.13-4.8 247.48-2.1 243.83 0.6 236.83 0.6L236.83 0.6Q229.48 0.6 225.43-2.83 221.38-6.25 221.38-13.2L221.38-13.2Q221.38-20 225.33-23.5 229.28-27 236.23-27L236.23-27ZM236.63-20.65Q231.93-20.65 231.38-16.2L231.38-16.2 241.08-16.2Q241.08-18.25 239.9-19.45 238.73-20.65 236.63-20.65L236.63-20.65ZM290.02 0L279.57 0 269.57-26.4 280.27-26.4 285.13-9.95 285.47-9.95 290.32-26.4 300.13-26.4 290.02 0ZM313.42-29.5L303.47-29.5 303.47-36.25 313.42-36.25 313.42-29.5ZM313.42 0L303.47 0 303.47-26.4 313.42-26.4 313.42 0ZM335.82-27.05Q336.97-27.05 337.87-26.78 338.77-26.5 338.77-26.45L338.77-26.45 338.77-18.1 335.57-18.1Q332.47-18.1 331.09-16.5 329.72-14.9 329.72-11.75L329.72-11.75 329.72 0 319.77 0 319.77-26.4 327.92-26.4 328.57-22.4Q329.47-24.7 331.42-25.88 333.37-27.05 335.82-27.05L335.82-27.05ZM356.47-26.4L362.07-26.4 362.07-19.65 356.47-19.65 356.47-9.6Q356.47-7.8 357.07-6.98 357.67-6.15 359.27-6.15L359.27-6.15 362.07-6.15 362.07-0.3Q360.87 0.1 358.97 0.35 357.07 0.6 355.67 0.6L355.67 0.6Q351.27 0.6 348.89-1 346.52-2.6 346.52-6.45L346.52-6.45 346.52-19.65 342.82-19.65 342.82-26.4 346.92-26.4 349.07-34.4 356.47-34.4 356.47-26.4ZM393.96 0L385.81 0 385.16-4Q383.61-1.85 381.09-0.63 378.56 0.6 375.76 0.6L375.76 0.6Q371.16 0.6 368.86-1.95 366.56-4.5 366.56-9.3L366.56-9.3 366.56-26.4 376.51-26.4 376.51-10.5Q376.51-8.8 377.39-7.78 378.26-6.75 379.86-6.75L379.86-6.75Q381.71-6.75 382.86-7.95 384.01-9.15 384.01-10.9L384.01-10.9 384.01-26.4 393.96-26.4 393.96 0ZM413.06-27Q419.11-27 422.91-24.98 426.71-22.95 426.71-18.4L426.71-18.4 426.71-8.1Q426.71-7.25 427.11-6.7 427.51-6.15 428.31-6.15L428.31-6.15 430.11-6.15 430.11-0.4Q429.96-0.3 429.34-0.08 428.71 0.15 427.56 0.38 426.41 0.6 424.91 0.6L424.91 0.6Q422.01 0.6 420.14-0.28 418.26-1.15 417.56-2.7L417.56-2.7Q415.66-1.2 413.31-0.3 410.96 0.6 407.81 0.6L407.81 0.6Q398.51 0.6 398.51-6.8L398.51-6.8Q398.51-10.65 400.59-12.68 402.66-14.7 406.56-15.45 410.46-16.2 416.76-16.2L416.76-16.2 416.76-17.5Q416.76-19.05 415.69-19.85 414.61-20.65 412.91-20.65L412.91-20.65Q411.36-20.65 410.24-20.1 409.11-19.55 409.11-18.35L409.11-18.35 409.11-18.15 399.31-18.15Q399.26-18.4 399.26-18.85L399.26-18.85Q399.26-22.6 402.84-24.8 406.41-27 413.06-27L413.06-27ZM416.76-11.5Q412.51-11.5 410.49-10.58 408.46-9.65 408.46-8.1L408.46-8.1Q408.46-5.6 411.86-5.6L411.86-5.6Q413.81-5.6 415.29-6.65 416.76-7.7 416.76-9.25L416.76-9.25 416.76-11.5ZM443.66 0L433.71 0 433.71-36.25 443.66-36.25 443.66 0ZM480.3-27Q486.8-27 490.83-24.23 494.85-21.45 494.85-15.75L494.85-15.75 485.2-15.75Q485.2-20.25 480.3-20.25L480.3-20.25Q475.4-20.25 475.4-14.6L475.4-14.6 475.4-11.75Q475.4-6.15 480.5-6.15L480.5-6.15Q485.6-6.15 485.6-10.75L485.6-10.75 494.85-10.75Q494.85-5 490.83-2.2 486.8 0.6 480.3 0.6L480.3 0.6Q473.35 0.6 469.4-2.9 465.45-6.4 465.45-13.2L465.45-13.2Q465.45-20 469.4-23.5 473.35-27 480.3-27L480.3-27ZM513.65-27Q520.6-27 524.58-23.48 528.55-19.95 528.55-13.2L528.55-13.2Q528.55-6.45 524.58-2.93 520.6 0.6 513.65 0.6L513.65 0.6Q506.7 0.6 502.75-2.9 498.8-6.4 498.8-13.2L498.8-13.2Q498.8-20 502.75-23.5 506.7-27 513.65-27L513.65-27ZM513.65-20.25Q508.75-20.25 508.75-14.6L508.75-14.6 508.75-11.75Q508.75-6.15 513.65-6.15L513.65-6.15Q518.6-6.15 518.6-11.75L518.6-11.75 518.6-14.6Q518.6-20.25 513.65-20.25L513.65-20.25ZM568.4-27Q572.9-27 575.15-24.43 577.4-21.85 577.4-17.1L577.4-17.1 577.4 0 567.45 0 567.45-15.9Q567.45-17.6 566.62-18.63 565.8-19.65 564.3-19.65L564.3-19.65Q562.55-19.65 561.45-18.45 560.35-17.25 560.35-15.5L560.35-15.5 560.35 0 550.4 0 550.4-15.9Q550.4-17.6 549.57-18.63 548.75-19.65 547.25-19.65L547.25-19.65Q545.5-19.65 544.4-18.45 543.3-17.25 543.3-15.5L543.3-15.5 543.3 0 533.35 0 533.35-26.4 541.5-26.4 542.15-22.45Q543.65-24.55 546.12-25.78 548.6-27 551.35-27L551.35-27Q557.3-27 559.35-22.45L559.35-22.45Q560.9-24.55 563.32-25.78 565.75-27 568.4-27L568.4-27ZM600.75-27Q606.1-27 609-23.5 611.9-20 611.9-13.15L611.9-13.15Q611.9-6.35 609-2.88 606.1 0.6 600.75 0.6L600.75 0.6Q596.15 0.6 593.35-2.4L593.35-2.4 593.35 9.85 583.4 9.85 583.4-26.4 591.5-26.4 592.35-22.65Q595.25-27 600.75-27L600.75-27ZM597.65-19.65Q595.45-19.65 594.35-18.1 593.25-16.55 593.25-14.05L593.25-14.05 593.25-12.4Q593.25-9.9 594.35-8.33 595.45-6.75 597.65-6.75L597.65-6.75Q601.95-6.75 601.95-11.9L601.95-11.9 601.95-14.55Q601.95-19.65 597.65-19.65L597.65-19.65ZM629.74-27Q635.79-27 639.59-24.98 643.39-22.95 643.39-18.4L643.39-18.4 643.39-8.1Q643.39-7.25 643.79-6.7 644.19-6.15 644.99-6.15L644.99-6.15 646.79-6.15 646.79-0.4Q646.64-0.3 646.02-0.08 645.39 0.15 644.24 0.38 643.09 0.6 641.59 0.6L641.59 0.6Q638.69 0.6 636.82-0.28 634.94-1.15 634.24-2.7L634.24-2.7Q632.34-1.2 629.99-0.3 627.64 0.6 624.49 0.6L624.49 0.6Q615.19 0.6 615.19-6.8L615.19-6.8Q615.19-10.65 617.27-12.68 619.34-14.7 623.24-15.45 627.14-16.2 633.44-16.2L633.44-16.2 633.44-17.5Q633.44-19.05 632.37-19.85 631.29-20.65 629.59-20.65L629.59-20.65Q628.04-20.65 626.92-20.1 625.79-19.55 625.79-18.35L625.79-18.35 625.79-18.15 615.99-18.15Q615.94-18.4 615.94-18.85L615.94-18.85Q615.94-22.6 619.52-24.8 623.09-27 629.74-27L629.74-27ZM633.44-11.5Q629.19-11.5 627.17-10.58 625.14-9.65 625.14-8.1L625.14-8.1Q625.14-5.6 628.54-5.6L628.54-5.6Q630.49-5.6 631.97-6.65 633.44-7.7 633.44-9.25L633.44-9.25 633.44-11.5ZM668.24-27Q672.84-27 675.14-24.45 677.44-21.9 677.44-17.1L677.44-17.1 677.44 0 667.49 0 667.49-15.9Q667.49-17.6 666.62-18.63 665.74-19.65 664.14-19.65L664.14-19.65Q662.29-19.65 661.14-18.45 659.99-17.25 659.99-15.5L659.99-15.5 659.99 0 650.04 0 650.04-26.4 658.19-26.4 658.84-22.4Q660.39-24.5 662.92-25.75 665.44-27 668.24-27L668.24-27ZM693.69-29.5L683.74-29.5 683.74-36.25 693.69-36.25 693.69-29.5ZM693.69 0L683.74 0 683.74-26.4 693.69-26.4 693.69 0ZM713.69-27Q720.64-27 724.61-23.48 728.59-19.95 728.59-13.2L728.59-13.2Q728.59-6.45 724.61-2.93 720.64 0.6 713.69 0.6L713.69 0.6Q706.74 0.6 702.79-2.9 698.84-6.4 698.84-13.2L698.84-13.2Q698.84-20 702.79-23.5 706.74-27 713.69-27L713.69-27ZM713.69-20.25Q708.79-20.25 708.79-14.6L708.79-14.6 708.79-11.75Q708.79-6.15 713.69-6.15L713.69-6.15Q718.64-6.15 718.64-11.75L718.64-11.75 718.64-14.6Q718.64-20.25 713.69-20.25L713.69-20.25ZM751.58-27Q756.18-27 758.48-24.45 760.78-21.9 760.78-17.1L760.78-17.1 760.78 0 750.83 0 750.83-15.9Q750.83-17.6 749.96-18.63 749.08-19.65 747.48-19.65L747.48-19.65Q745.63-19.65 744.48-18.45 743.33-17.25 743.33-15.5L743.33-15.5 743.33 0 733.38 0 733.38-26.4 741.53-26.4 742.18-22.4Q743.73-24.5 746.26-25.75 748.78-27 751.58-27L751.58-27ZM775.18-12.3L768.83-12.3 766.08-34.4 778.03-34.4 775.18-12.3ZM776.98 0L767.08 0 767.08-9.25 776.98-9.25 776.98 0Z" opacity="1" transform="matrix(1,0,0,1,0,0)" fill="#ffffff" class="slogan-text-1" data-fill-palette-color="secondary" id="text-1"></path></svg></g></svg></g></svg></g></svg></g><g></g></svg></g><defs></defs></svg><rect width="395.52" height="70.92933721986901" fill="none" stroke="none" visibility="hidden"></rect></g></svg></g></svg>